<?xml version="1.0" encoding="iso-8859-1"?>
<!-- Generator: Adobe Illustrator 19.0.0, SVG Export Plug-In . SVG Version: 6.00 Build 0)  -->
<svg xmlns="http://www.w3.org/2000/svg" xmlns:xlink="http://www.w3.org/1999/xlink" version="1.1" id="Layer_1" x="0px" y="0px" viewBox="0 0 490.667 490.667" style="enable-background:new 0 0 490.667 490.667;" xml:space="preserve">
<g>
	<g>
		<g>
			<path d="M224,234.669h-24.192l12.096-20.949c2.965-5.099,1.216-11.627-3.904-14.571c-5.077-2.923-11.627-1.195-14.571,3.904     l-12.096,20.971l-12.096-20.971c-2.944-5.12-9.493-6.848-14.571-3.904c-5.099,2.944-6.848,9.472-3.904,14.571l12.096,20.949     h-24.192c-5.888,0-10.667,4.779-10.667,10.667s4.779,10.667,10.667,10.667h24.192l-12.096,20.949     c-2.965,5.099-1.216,11.627,3.904,14.571c1.685,0.96,3.52,1.429,5.333,1.429c3.669,0,7.275-1.899,9.237-5.333l12.096-20.971     l12.096,20.971c1.963,3.435,5.568,5.333,9.237,5.333c1.813,0,3.648-0.448,5.333-1.429c5.099-2.944,6.848-9.472,3.904-14.571     l-12.096-20.949H224c5.888,0,10.667-4.779,10.667-10.667S229.888,234.669,224,234.669z"/>
			<path d="M96,234.669H71.808l12.096-20.949c2.965-5.099,1.216-11.627-3.904-14.571c-5.077-2.923-11.627-1.195-14.571,3.904     l-12.096,20.971l-12.096-20.971c-2.944-5.12-9.493-6.848-14.571-3.904c-5.099,2.944-6.848,9.472-3.904,14.571l12.096,20.949     H10.667C4.779,234.669,0,239.448,0,245.336s4.779,10.667,10.667,10.667h24.192l-12.096,20.949     c-2.965,5.099-1.216,11.627,3.904,14.571c1.685,0.96,3.52,1.429,5.333,1.429c3.669,0,7.275-1.899,9.237-5.333l12.096-20.971     l12.096,20.971c1.963,3.435,5.568,5.333,9.237,5.333c1.813,0,3.648-0.448,5.333-1.429c5.099-2.944,6.848-9.472,3.904-14.571     l-12.096-20.949H96c5.888,0,10.667-4.779,10.667-10.667S101.888,234.669,96,234.669z"/>
			<path d="M352,234.669h-24.192l12.096-20.949c2.965-5.099,1.216-11.627-3.904-14.571c-5.099-2.923-11.648-1.195-14.571,3.904     l-12.096,20.971l-12.096-20.971c-2.923-5.12-9.472-6.848-14.571-3.904c-5.099,2.944-6.848,9.472-3.904,14.571l12.096,20.949     h-24.192c-5.888,0-10.667,4.779-10.667,10.667s4.779,10.667,10.667,10.667h24.192l-12.096,20.949     c-2.965,5.099-1.216,11.627,3.904,14.571c1.685,0.96,3.52,1.429,5.333,1.429c3.669,0,7.275-1.899,9.237-5.333l12.096-20.971     l12.096,20.971c1.963,3.435,5.568,5.333,9.237,5.333c1.813,0,3.648-0.448,5.333-1.429c5.099-2.944,6.848-9.472,3.904-14.571     l-12.096-20.949H352c5.888,0,10.667-4.779,10.667-10.667S357.888,234.669,352,234.669z"/>
			<path d="M480,234.669h-24.192l12.096-20.949c2.965-5.099,1.216-11.627-3.904-14.571c-5.099-2.923-11.627-1.195-14.571,3.904     l-12.096,20.971l-12.096-20.971c-2.944-5.12-9.451-6.848-14.571-3.904s-6.848,9.472-3.904,14.571l12.096,20.949h-24.192     c-5.888,0-10.667,4.779-10.667,10.667s4.779,10.667,10.667,10.667h24.192l-12.096,20.949c-2.965,5.099-1.216,11.627,3.904,14.571     c1.685,0.96,3.52,1.429,5.333,1.429c3.669,0,7.275-1.899,9.237-5.333l12.096-20.971l12.096,20.971     c1.963,3.435,5.568,5.333,9.237,5.333c1.813,0,3.648-0.448,5.333-1.429c5.099-2.944,6.848-9.472,3.904-14.571l-12.096-20.949H480     c5.888,0,10.667-4.779,10.667-10.667S485.888,234.669,480,234.669z"/>
		</g>
	</g>
</g>
<g>
</g>
<g>
</g>
<g>
</g>
<g>
</g>
<g>
</g>
<g>
</g>
<g>
</g>
<g>
</g>
<g>
</g>
<g>
</g>
<g>
</g>
<g>
</g>
<g>
</g>
<g>
</g>
<g>
</g>
</svg>
