<?xml version="1.0" encoding="iso-8859-1"?>
<!-- Generator: Adobe Illustrator 19.0.0, SVG Export Plug-In . SVG Version: 6.00 Build 0)  -->
<svg xmlns="http://www.w3.org/2000/svg" xmlns:xlink="http://www.w3.org/1999/xlink" version="1.1" id="Layer_1" x="0px" y="0px" viewBox="0 0 512 512" style="enable-background:new 0 0 512 512;" xml:space="preserve">
<g>
	<g>
		<g>
			<path d="M501.333,362.24h-10.667v-10.667c0-41.173-33.493-74.667-74.667-74.667s-74.667,33.493-74.667,74.667v10.667h-10.667     c-5.888,0-10.667,4.779-10.667,10.667v128c0,5.888,4.779,10.667,10.667,10.667h170.667c5.888,0,10.667-4.779,10.667-10.667v-128     C512,367.019,507.221,362.24,501.333,362.24z M426.667,444.309v13.952c0,5.888-4.779,10.667-10.667,10.667     c-5.888,0-10.667-4.779-10.667-10.667v-13.952c-6.251-3.733-10.667-10.261-10.667-18.048c0-11.755,9.557-21.333,21.333-21.333     s21.333,9.579,21.333,21.333C437.333,434.048,432.917,440.576,426.667,444.309z M469.333,362.24H362.667v-10.667     c0-29.397,23.915-53.333,53.333-53.333c29.419,0,53.333,23.936,53.333,53.333V362.24z"/>
			<path d="M364.907,270.699c1.877-1.195,3.307-2.944,4.139-4.992c1.493-3.733,2.752-7.275,3.733-10.624     c12.629-3.093,22.485-13.717,24.149-27.115l5.333-42.667c1.131-9.003-1.643-18.091-7.595-24.939     c-3.541-3.989-7.957-7.019-12.843-8.875l1.963-40.171l7.979-7.979c12.011-12.779,21.973-34.688,1.152-66.496     c-16-24.448-43.179-36.821-80.789-36.821c-14.827,0-49.024,0-80.875,21.376C140.352,23.296,128,65.515,128,106.688     c0,9.579,2.325,31.147,3.861,44.16c-5.483,1.728-10.475,4.928-14.336,9.323c-6.059,6.869-8.896,16.043-7.765,25.152l5.333,42.667     c1.728,13.909,12.309,24.853,25.643,27.456c4.437,29.333,18.624,58.112,39.232,79.403l-7.424,29.717l-81.728,20.437     C37.333,398.357,0,446.208,0,501.312c0,2.837,1.131,5.547,3.115,7.552c2.005,1.984,4.715,3.115,7.552,3.115c0,0,0,0,0.021,0     l277.333-0.405c5.867,0,10.645-4.779,10.645-10.667v-128c0-11.819,6.635-22.613,17.28-28.203     c2.987-1.579,5.056-4.459,5.589-7.808C325.76,309.781,341.547,285.653,364.907,270.699z"/>
		</g>
	</g>
</g>
<g>
</g>
<g>
</g>
<g>
</g>
<g>
</g>
<g>
</g>
<g>
</g>
<g>
</g>
<g>
</g>
<g>
</g>
<g>
</g>
<g>
</g>
<g>
</g>
<g>
</g>
<g>
</g>
<g>
</g>
</svg>
