<?xml version="1.0" encoding="iso-8859-1"?>
<!-- Generator: Adobe Illustrator 19.0.0, SVG Export Plug-In . SVG Version: 6.00 Build 0)  -->
<svg xmlns="http://www.w3.org/2000/svg" xmlns:xlink="http://www.w3.org/1999/xlink" version="1.1" id="Layer_1" x="0px" y="0px" viewBox="0 0 512.005 512.005" style="enable-background:new 0 0 512.005 512.005;" xml:space="preserve">
<g>
	<g>
		<g>
			<path d="M138.667,42.669c-52.928,0-96,43.072-96,96c0,52.928,43.072,96,96,96c52.928,0,96-43.072,96-96     C234.667,85.741,191.595,42.669,138.667,42.669z"/>
			<path d="M508.885,493.784L243.861,228.781c20.8-24.277,33.472-55.723,33.472-90.112c0-76.459-62.208-138.667-138.667-138.667     S0,62.211,0,138.669s62.208,138.667,138.667,138.667c34.389,0,65.835-12.672,90.112-33.472l172.139,172.139l-35.115,35.115     c-4.16,4.16-4.16,10.923,0,15.083c2.069,2.091,4.8,3.136,7.531,3.136c2.731,0,5.461-1.045,7.552-3.115L416,431.107l27.584,27.584     l-35.115,35.115c-4.16,4.16-4.16,10.923,0,15.083c2.069,2.069,4.8,3.115,7.531,3.115c2.731,0,5.461-1.045,7.552-3.115     l35.115-35.115l35.115,35.115c2.091,2.069,4.821,3.115,7.552,3.115c2.731,0,5.461-1.045,7.552-3.115     C513.045,504.707,513.045,497.965,508.885,493.784z M138.667,256.003c-64.704,0-117.333-52.629-117.333-117.333     c0-64.704,52.629-117.333,117.333-117.333S256,73.965,256,138.669C256,203.373,203.371,256.003,138.667,256.003z"/>
		</g>
	</g>
</g>
<g>
</g>
<g>
</g>
<g>
</g>
<g>
</g>
<g>
</g>
<g>
</g>
<g>
</g>
<g>
</g>
<g>
</g>
<g>
</g>
<g>
</g>
<g>
</g>
<g>
</g>
<g>
</g>
<g>
</g>
</svg>
