<?xml version="1.0" encoding="iso-8859-1"?>
<!-- Generator: Adobe Illustrator 19.0.0, SVG Export Plug-In . SVG Version: 6.00 Build 0)  -->
<svg xmlns="http://www.w3.org/2000/svg" xmlns:xlink="http://www.w3.org/1999/xlink" version="1.1" id="Layer_1" x="0px" y="0px" viewBox="0 0 490.667 490.667" style="enable-background:new 0 0 490.667 490.667;" xml:space="preserve">
<g>
	<g>
		<path d="M245.333,0C110.059,0,0,110.059,0,245.333s110.059,245.333,245.333,245.333s245.333-110.059,245.333-245.333    S380.608,0,245.333,0z M308.608,347.179c0.725,1.451,1.152,3.093,1.152,4.821c0,5.888-4.779,10.667-10.667,10.667H192    c-3.179,0-6.187-1.408-8.213-3.861c-2.027-2.453-2.859-5.675-2.261-8.789l16.853-89.579    c-17.472-14.123-27.712-35.243-27.712-57.771c0-41.173,33.493-74.667,74.667-74.667S320,161.493,320,202.667    c0,22.528-10.24,43.648-27.712,57.792L308.608,347.179z"/>
	</g>
</g>
<g>
</g>
<g>
</g>
<g>
</g>
<g>
</g>
<g>
</g>
<g>
</g>
<g>
</g>
<g>
</g>
<g>
</g>
<g>
</g>
<g>
</g>
<g>
</g>
<g>
</g>
<g>
</g>
<g>
</g>
</svg>
