<?xml version="1.0" encoding="iso-8859-1"?>
<!-- Generator: Adobe Illustrator 19.0.0, SVG Export Plug-In . SVG Version: 6.00 Build 0)  -->
<svg xmlns="http://www.w3.org/2000/svg" xmlns:xlink="http://www.w3.org/1999/xlink" version="1.1" id="Layer_1" x="0px" y="0px" viewBox="0 0 490.672 490.672" style="enable-background:new 0 0 490.672 490.672;" xml:space="preserve">
<g>
	<g>
		<g>
			<path d="M330.667,277.336h-128c-17.643,0-32-14.357-32-32s14.357-32,32-32h128c5.888,0,10.667-4.779,10.667-10.667V53.336     c0-29.397-23.936-53.333-53.333-53.333H53.333C23.936,0.003,0,23.939,0,53.336v384c0,29.397,23.936,53.333,53.333,53.333H288     c29.397,0,53.333-23.936,53.333-53.333V288.003C341.333,282.115,336.576,277.336,330.667,277.336z"/>
			<path d="M489.856,241.261c-0.533-1.323-1.323-2.496-2.325-3.477l-85.312-85.312c-4.16-4.16-10.923-4.16-15.083,0     c-4.16,4.16-4.16,10.923,0,15.083l67.115,67.115H202.667c-5.888,0-10.667,4.779-10.667,10.667s4.779,10.667,10.667,10.667     h251.584l-67.115,67.115c-4.16,4.16-4.16,10.923,0,15.083c2.069,2.091,4.8,3.136,7.531,3.136c2.731,0,5.461-1.045,7.552-3.115     l85.312-85.312c1.003-1.003,1.771-2.197,2.325-3.499C490.944,246.808,490.944,243.864,489.856,241.261z"/>
		</g>
	</g>
</g>
<g>
</g>
<g>
</g>
<g>
</g>
<g>
</g>
<g>
</g>
<g>
</g>
<g>
</g>
<g>
</g>
<g>
</g>
<g>
</g>
<g>
</g>
<g>
</g>
<g>
</g>
<g>
</g>
<g>
</g>
</svg>
